<svg role="img" viewBox="0 0 24 24" xmlns="http://www.w3.org/2000/svg"><title>Box</title><path d="M12.002.001c-1.424 0-2.81 1.258-3.09 2.805-.01.07-.46 2.08-1.01 4.47l-1.01 4.5 10.23-.01 10.23-.01-1-4.47c-.55-2.42-1-4.47-1.01-4.54C25.07 1.256 23.682 0 22.257 0h-9.256C8.75 0 8.5 0 7.25.132 7.12.392 6.87 2.052 6.69 3.842L6.37 7.07 1.77 7.07 1.78 11.23l4.59.01 4.59.01.27 1.07c.15.59.29 1.15.31 1.25.05.2.39.2.71.01.2-.12.42-.89.5-1.74l.13-1.53c0.11-.84 9.38-10.42 12.00 0zM12.28 14.5c-.32.19-.57 1.01-.62 2.03l-.06 1.15-4.78.01-4.78.01.05 1.63c.03.88.08 1.66.11 1.72.17 1.6 1.57 2.92 3.19 2.95 2.53.04 7.6.04 10.15 0 3.75-.02 4.67-1.4 5.09-3.92.05-.29.41-1.72.63-2.39H12.28z"/></svg>