<svg role="img" viewBox="0 0 24 24" xmlns="http://www.w3.org/2000/svg"><title>DigitalOcean</title><path d="M12.04 0C5.394 0 0 5.385 0 12.029c0 6.634 5.385 12.02 12.02 12.02s12.02-5.386 12.02-12.02h-4.606c0 4.094-3.324 7.414-7.414 7.414-4.085 0-7.413-3.32-7.413-7.414 0-4.086 3.32-7.406 7.413-7.406v-4.6zm-1.637 5.75c-.328 0-.648.026-.96.077v5.525c0 .303.027.6.077.893h3.535l1.956 1.952h-5.568c0 3.313 2.697 6.011 6.011 6.011v-4.605c-.783 0-1.406-.623-1.406-1.406s.623-1.406 1.406-1.406c.774 0 1.405.623 1.405 1.406h4.606c0-3.313-2.697-6.015-6.011-6.015s-6.011 2.693-6.011 6.002h-4.606c0-4.636 4.978-8.435 5.567-8.435z"/></svg>