<svg role="img" viewBox="0 0 24 24" xmlns="http://www.w3.org/2000/svg"><title>Evernote</title><path d="M21.282 3.659c-.432-1.859-2.122-2.73-4.516-2.914l-.066-.024c-2.073-.705-4.832.55-5.46 1.859-.442 1.258-3.535 1.55-5.69 1.55C3.39 4.13 2 4.978 2 7.042c0 2.247.962 4.181 3.294 6.257-.59 2.476-1.077 5.753-.02 8.35.485 1.258 1.968 1.258 2.723.111.439-.636.5-1.768.455-2.722 0-3.32-.236-8.916 2.515-8.916.637 0 .848.336 1.015.69.758 1.517.425 7.6.425 7.6s.484 2.193 2.5 2.158c2.984-.054 4.106-2.774 4.545-3.693.303-.583-.075-1.255-.772-1.008-2.288.742-2.833-2.439-2.833-2.439s3.045 1.432 4.09 1.078c1.395-.441 2.213-2.633 2.213-4.753.06-2.791-.455-4.646-.864-6.1zm-8.228.636c-.455 0-.773-.353-.773-.813 0-.441.318-.795.773-.795.454 0 .818.354.818.795 0 .46-.364.813-.818.813z"/></svg>