<svg role="img" viewBox="0 0 24 24" xmlns="http://www.w3.org/2000/svg"><title>Fitbit</title><path d="M17.11 0c2.51 0 2.22 1.94 1.88 2.68-.8.63-1.6 1.14-2.51 1.6-1.54 1.09-2.68 1.49-4.57 2.06C11.66 4.97 9.89 2.06 7.89 2.06c-1.83 0-3.31 1.09-2.86 5.08 1.14.74 2.23 1.48 4.28 2.4 2.46 1.08 4 1.6 5.14 3.08-1.37.57-2.91 1.14-5.08 1.83-2.63.8-3.08.34-3.77-.34-1.08-.8-1.54-3.25-1.54-5.08.28-1.48 3.03-3.66 2.63-5.37-1.14-.17-2.17-.11-2.91 0-2.69.4-4.17 3.94-3.71 6.57.17 2.11 1.66 3.54 3.25 4.51.52 1.37 1.49 2.46 2.57 3.26.86.63 2.11 1.03 2.86 1.03 2.4 0 4.11-2.23 5.37-4.11 1.31-.91 2.23-1.54 3.25-2.63.69-.74 1.14-1.6 1.37-2.4 1.14-2.11.06-2.57-2.06-3.83-2.05-1.2-4.11-2-6.51-2.68-.4-.4-.57-.86-.57-1.43 0-1.49 1.49-2 2.51-2Z"/></svg>