<svg role="img" viewBox="0 0 24 24" xmlns="http://www.w3.org/2000/svg"><title>Notion</title><path d="M4.459 4.208c.746.606 1.026.56 2.428.466l13.215-.793c.28 0 .047-.28.047-.326L19.648.28s-.093-.28-.326-.046L15.685 3.16c-2.424-.093-6.108.513-8.813 1.166l.7.093c.746-.14 2.238 2.005 2.238 2.005l-1.352.093c-1.819.327-4.149 1.492-4.149 1.492s-.653.28-.233.932l.233.187s1.352 1.958 2.005 2.89L7.49 23.36s.233.98 1.119.513c1.678-.887 8.3-4.662 10.492-5.968.42-.233 1.073.093 1.073.093l.28-.187c.42-.699 2.472-10.538 2.472-10.538s.14-.653-.606-.653H5.065c-.793 0-.793-.186-.606-.886Z"/></svg>