<svg role="img" viewBox="0 0 24 24" xmlns="http://www.w3.org/2000/svg"><title>PayPal</title><path d="M7.076 21.337l.886-5.604h-1.66c-.477 0-.792.274-.863.754l-.79 4.85h2.427zm3.56-5.604l.322-2.035c.105-.67.669-1.177 1.347-1.177h2.895c2.329 0 4.102-1.353 4.502-4.045.196-1.32-.162-2.585-.92-3.526.495 1.05.352 2.768-.902 4.095-1.18 1.25-3.082 1.397-4.636 1.397h-2.18l-3.23 2.05-2.06 13.06h3.42l.8-5.07h2.42c2.05 0 3.82-1.07 4.3-3.29.35-1.63-.09-2.91-1.03-3.83.65.61 1.05 1.49 1.11 2.39.06.91-.32 2.04-1.29 2.92-.85.76-2.19.98-3.41.98h-1.99l-.88 5.6h-2.43l-.33 2.04h-3.92z"/></svg>