<svg role="img" viewBox="0 0 24 24" xmlns="http://www.w3.org/2000/svg"><title>Shopify</title><path d="M22.03 5.48c-1.28-2-2.13-2.32-3.87-2.61L17.5.34a1.86 1.86 0 0 0-3.07-.15L7.75 8.16l-4.13.59a1.05 1.05 0 0 0-.84 1.48l3.87 8.13c1.78 3.78 4 6.06 9 5.25a7.35 7.35 0 0 0 5-4.72c1.4-4.2.33-10.43 1.39-13.4Zm-7.85 4.54-1.3-3.64 1.58-1 1.76 2.76c-1.3.36-1.82 1.25-2.04 1.88Zm-5.3-2.67 3.6-4.33 3.39 3.09c-.16.36-.67 1.6-1.63 2.09l-5.36-.85ZM5.38 9.94l3.19-.48-2.6 3.63-1.64-1.61.93-1.42.12-.12Zm10.51 10.94c-4.28.67-6.23-1.3-7.79-4.57l-1-2.09 3.52 1.45c.82.33 1.48 0 1.66-1.06L14 9.34l3.15 4.91c.27 1.27.09 4.31-1.26 6.17Zm1.82-3.85c.66-1.85 1.48-5.3.82-7.27l1.76 2.75a18.25 18.25 0 0 1-2.58 4.52Z"/></svg>