<svg role="img" viewBox="0 0 24 24" xmlns="http://www.w3.org/2000/svg"><title>Stack Exchange</title><path d="M22.094 13.914h-1.928v5.86c0 .54-.45 1-1 1H4.846c-.538 0-1.002-.45-1.002-1v-5.86H1.918v5.86c0 1.597 1.348 2.946 2.928 2.946h14.32c1.6 0 2.928-1.35 2.928-2.946v-5.86zm-8.883-9.15l-4.542 2.37.892 1.745 4.542-2.398-.892-1.718zm-6.287 5.71l3.966 2.998 1.15-1.62-3.95-3.003-1.165 1.625zm7.394 6.136H7.994v2.09h6.325v-2.09zm-5.74-2.846l5.534 1.3 1.25-1.87-5.55-1.29-1.233 1.86zm7.37-8.16l1.325-1.272-4.04-4.208-1.34 1.292 4.055 4.188z"/></svg>