<svg role="img" viewBox="0 0 24 24" xmlns="http://www.w3.org/2000/svg"><title>TikTok</title><path d="M12.525.02c1.31-.02 2.61-.01 3.91-.02.08 1.53.63 3.09 1.75 4.17 1.12 1.11 2.7 1.62 4.24 1.79v4.03c-1.44-.05-2.89-.35-4.2-.97-.57-.26-1.1-.59-1.62-.93v6.16c0 1.62-.03 2.37.06 3.7.1 2.78-1.57 5.37-4.17 6.42-2.92 1.18-6.3.38-8.2-2.11C2.33 19.4 1.94 15.6 3.6 12.01c2.14-4.63 8.3-5.22 11.23-1.07.12.18.22.37.31.57v-4.6c-1.17 0-2.33 0-3.5 0-2.22 0-3.3 1.25-3.3 3.82 0 1.83.03 3.67 0 5.5-.06 1.18-.75 2.22-1.78 2.65-1.55.65-3.23-.27-3.77-1.88-.63-1.89.28-4.05 2.06-4.9.43-.21.89-.34 1.35-.41 0-1.34 0-2.68 0-4.01-.2 0-.41.01-.61.03-3.08.38-5.38 3.19-5.18 6.32.22 3.48 3.28 6.09 6.77 5.8 2.58-.22 4.67-2.33 4.88-4.91.07-.86.04-1.72.04-2.58V.02h2.465z"/></svg>