<svg role="img" viewBox="0 0 24 24" xmlns="http://www.w3.org/2000/svg"><title>VK</title><path d="M15.073 2H8.939C3.09 2 .5 4.608.5 10.457v3.086C.5 19.392 3.09 22 8.939 22h6.134C20.922 22 23.5 19.392 23.5 13.543v-3.086C23.5 4.608 20.922 2 15.073 2zm3.328 14.836h-1.398c-.469 0-.645-.25-.97-1.074-1.124-2.828-2.618-2.313-2.618-1.55v4.992h-2V14.23c-1.523.102-3.132 1.953-4.113 4.993H5.93s1.5-6.192 5.562-7.864V9.66c0-.996-.289-1.196-.941-1.196H10.16V6.787a7.714 7.714 0 0 1 2.293-.242c1.074.074 1.39.516 1.39 1.48v3.133c0 .543.195.731.32.805.215.125.75-.152 1.996-2.285 1.055-1.817 1.485-2.891 1.485-2.891h2.207s-1.848 3.559-2.242 4.215c-.446.738-1.192 1.484.058 2.37.766.547 2.735 2.583 2.735 2.583z"/></svg>