<svg role="img" viewBox="0 0 24 24" xmlns="http://www.w3.org/2000/svg"><title>WordPress</title><path d="M12.004 0C5.38 0 .01 5.37.01 11.996c0 5.483 3.69 10.106 8.762 11.55L4.92 11.838a6.561 6.561 0 0 1 .187-1.636c0-.98-.35-1.7-.63-2.33-.21-.49-.42-.98-.42-1.59 0-1.564 1.214-2.986 2.87-2.986.98 0 1.61.09 1.61.09s-.535 2.15-1.328 4.316l-1.936 5.86 3.966 11.856c-1.516.21-3.08.187-4.666-.35L15.65.65c-2.31 0-3.69.722-3.69.722L12.005 0zm6.985 7.697c.56 1.492.583 3.01.07 4.198l-3.336 9.684c3.055-.84 5.48-3.333 6.002-6.572.233-1.446.12-2.705-.21-3.64l.115-.35-2.64-3.32zM15.353 23c1.726 0 3.315-.513 4.638-1.4.303-.49.537-1.073.653-1.726l-4.106-12.26L12.55 22.84c.883.107 1.83.16 2.803.16zM1.808 11.996a10.116 10.116 0 0 0 2.45 6.64l4.522-13.49C4.945 6.565 1.808 9.04 1.808 11.996z"/></svg>